{"title":"300 2006 1080p Xvid AC3 LKRG","uid":10201077,"size":1464876759,"categoryP":"video","categoryS":"hd___movies","magnet":"?xt=urn:btih:ac73ede70b2cb910dc7a780325fdfed05c6d011e&amp;dn=300+2006+1080p+Xvid+AC3+LKRG&amp;tr=udp%3A%2F%2Ftracker.openbittorrent.com%3A80&amp;tr=udp%3A%2F%2Fopen.demonii.com%3A1337&amp;tr=udp%3A%2F%2Ftracker.coppersurfer.tk%3A6969&amp;tr=udp%3A%2F%2Fexodus.desync.com%3A6969","seeders":1,"leechers":0,"uploader":".BONE.","files":2,"time":1400776537,"description":"PLOT\n\nKing Leonidas and a force of 300 men fight the Persians at Thermopylae in 480 B.C.\n\nRuntime ..........: 1h 56mn\nFile Size ........: 1.36 GB\nResolution .......: 1920 x 800 &lt;a href=&quot;\nhttp://www.imdb.com/title/tt0416449/&quot; rel=&quot;nofollow&quot; target=&quot;_NEW&quot;&gt;\nhttp://www.imdb.com/title/tt0416449/&lt;/a&gt;\nGenre ............: Action,Fantasy,History\nLanguage .........: English\nSubtitles ........: None\nComplete name : 300 2006 1080p Xvid AC3 LKRG300_LKRG.avi\nFormat : AVI\nFormat/Info : Audio Video Interleave\nFile size : 1.36 GiB\nDuration : 1h 56mn\nOverall bit rate : 1 674 Kbps\nWriting application : VirtualDubMod 1.5.10.2 (build 2540/release)\nWriting library : VirtualDubMod build 2540/release\nVideo\nID : 0\nFormat : MPEG-4 Visual\nFormat profile : Advanced Simple@L5\nFormat settings, BVOP : 2\nFormat settings, QPel : No\nFormat settings, GMC : No warppoints\nFormat settings, Matrix : Default (H.263)\nMuxing mode : Packed bitstream\nCodec ID : XVID\nCodec ID/Hint : XviD\nDuration : 1h 56mn\nBit rate : 1 217 Kbps\nWidth : 1 920 pixels\nHeight : 800 pixels\nDisplay aspect ratio : 2.40:1\nFrame rate : 23.976 fps\nColor space : YUV\nChroma subsampling : 4:2:0\nBit depth : 8 bits\nScan type : Progressive\nCompression mode : Lossy\nBits/(Pixel*Frame) : 0.033\nStream size : 1 016 MiB (73%)\nWriting library : XviD 1.2.1 (UTC 2008-12-04)\nAudio\nID : 1\nFormat : AC-3\nFormat/Info : Audio Coding 3\nMode extension : CM (complete main)\nFormat settings, Endianness : Big\nCodec ID : 2000\nDuration : 1h 56mn\nBit rate mode : Constant\nBit rate : 448 Kbps\nChannel(s) : 6 channels\nChannel positions : Front: L C R, Side: L R, LFE\nSampling rate : 48.0 KHz\nBit depth : 16 bits\nCompression mode : Lossy\nStream size : 373 MiB (27%)\nAlignment : Split accross interleaves\nInterleave, duration : 42 ms (1.00 video frame)\nInterleave, preload duration : 500 ms\n\n","torrent":{"xt":"urn:btih:ac73ede70b2cb910dc7a780325fdfed05c6d011e","amp;dn":"300+2006+1080p+Xvid+AC3+LKRG","amp;tr":["udp%3A%2F%2Ftracker.openbittorrent.com%3A80","udp%3A%2F%2Fopen.demonii.com%3A1337","udp%3A%2F%2Ftracker.coppersurfer.tk%3A6969","udp%3A%2F%2Fexodus.desync.com%3A6969"],"infoHash":"ac73ede70b2cb910dc7a780325fdfed05c6d011e","infoHashBuffer":{"type":"Buffer","data":[172,115,237,231,11,44,185,16,220,122,120,3,37,253,254,208,92,109,1,30]},"announce":[],"urlList":[]}}